<svg xmlns="http://www.w3.org/2000/svg" viewBox="0 0 64 32" aria-hidden="true">
  <g fill="#4a6a82">
    <!-- Fuselage -->
    <path
      d="M9 15.2c0-2.1 1.6-3.2 3.4-3.2h33.8c5.2 0 7.4 1.5 7.8 3.1.3 1.2.3 2.4 0 3.6-.4 1.6-2.6 3.1-7.8 3.1H12.4c-1.8 0-3.4-1.1-3.4-3.2v-.4z"
    />
    <!-- Nose cone -->
    <path
      d="M9 16.2 4.2 16.1c-1.4 0-1.2-1.5 1.2-2.4L9 14.8v1.4z"
      fill="#3d5a72"
    />
    <!-- Main wing -->
    <path d="M24.5 16 33 8.8 37.2 16 33 23.2z" />
    <!-- Wing fairing / engine -->
    <ellipse cx="31" cy="20.8" rx="2.6" ry="1.7" fill="#3d5a72" />
    <!-- Vertical tail -->
    <path d="M50.5 13.8 54.8 8.5 57.2 14.2 53.8 16.2z" />
    <!-- Horizontal stabilizer -->
    <path d="M49.2 17.6h9.2v2.2h-9.2z" />
  </g>
  <!-- Cockpit windows -->
  <ellipse cx="14.5" cy="15" rx="2.2" ry="1.6" fill="#a8c8dc" opacity="0.8" />
  <ellipse cx="18.2" cy="15.2" rx="1.4" ry="1.1" fill="#a8c8dc" opacity="0.55" />
  <!-- Fuselage highlight -->
  <path
    d="M12 13.2h38.5"
    stroke="#7a9bb5"
    stroke-width="0.6"
    stroke-linecap="round"
    opacity="0.45"
    fill="none"
  />
</svg>
