<svg xmlns="http://www.w3.org/2000/svg" viewBox="0 0 32 32" fill="none">
  <rect width="32" height="32" rx="4" fill="#9e3b3b"/>
  <g stroke="#f7f5f2" stroke-width="1.35" stroke-linecap="round" stroke-linejoin="round" fill="none">
    <path d="M16 21.5c-2.2-1.6-4.5-3.8-4.5-6.2 0-2.1 1.7-3.5 3.5-3.5 1.1 0 2.1.5 2.8 1.3.7-.8 1.7-1.3 2.8-1.3 1.8 0 3.5 1.4 3.5 3.5 0 2.4-2.3 4.6-4.5 6.2z"/>
    <path d="M19.2 15.3c1.8-2.4 3.2-4.2 3.2-6.1"/>
    <circle cx="22.8" cy="8.6" r="1.1" fill="#f7f5f2" stroke="none"/>
    <path d="M21.6 8.1l2.8-1.1.9 1.6-2.4.8z" fill="#f7f5f2" stroke="none"/>
    <path d="M12.2 20.8c-1.2.8-2.4 1.5-3.4 1.8"/>
    <circle cx="8.2" cy="23.4" r="1.35"/>
    <circle cx="8.2" cy="23.4" r=".45" fill="#f7f5f2"/>
  </g>
</svg>
